# MagicaVoxel @ Ephtracy

# group
o 

# material
mtllib Bullet.mtl
usemtl palette

# normals
vn -1 0 0
vn 1 0 0
vn 0 0 1
vn 0 0 -1
vn 0 -1 0
vn 0 1 0

# texcoords
vt 0.0214844 0.5
vt 0.986328 0.5

# verts
v -0.5 0.1 1.9
v -0.5 0.1 -1.1
v -0.5 0.9 1.9
v -0.5 0.9 -1.1
v -0.4 0 1.9
v -0.4 0 -1.1
v -0.4 0.1 1.9
v -0.4 0.1 -1.1
v -0.4 0.1 -1.2
v -0.4 0.2 -1.2
v -0.4 0.2 -1.3
v -0.4 0.8 -1.2
v -0.4 0.8 -1.3
v -0.4 0.9 1.9
v -0.4 0.9 -1.1
v -0.4 0.9 -1.2
v -0.4 1 1.9
v -0.4 1 -1.1
v -0.3 0.1 -1.2
v -0.3 0.1 -1.3
v -0.3 0.2 1.9
v -0.3 0.2 1.8
v -0.3 0.2 -1.2
v -0.3 0.2 -1.3
v -0.3 0.2 -1.4
v -0.3 0.3 -1.4
v -0.3 0.3 -1.5
v -0.3 0.7 -1.4
v -0.3 0.7 -1.5
v -0.3 0.8 1.9
v -0.3 0.8 1.8
v -0.3 0.8 -1.2
v -0.3 0.8 -1.3
v -0.3 0.8 -1.4
v -0.3 0.9 -1.2
v -0.3 0.9 -1.3
v -0.2 0.2 -1.4
v -0.2 0.2 -1.5
v -0.2 0.3 -1.4
v -0.2 0.3 -1.5
v -0.2 0.3 -1.6
v -0.2 0.4 -1.6
v -0.2 0.4 -1.7
v -0.2 0.6 -1.6
v -0.2 0.6 -1.7
v -0.2 0.7 -1.4
v -0.2 0.7 -1.5
v -0.2 0.7 -1.6
v -0.2 0.8 -1.4
v -0.2 0.8 -1.5
v -0.1 0.3 -1.6
v -0.1 0.3 -1.7
v -0.1 0.4 -1.6
v -0.1 0.4 -1.7
v -0.1 0.6 -1.6
v -0.1 0.6 -1.7
v -0.1 0.7 -1.6
v -0.1 0.7 -1.7
v 0.4 0.1 1.9
v 0.4 0.1 1.7
v 0.4 0.2 1.8
v 0.4 0.2 1.7
v 0.4 0.9 1.9
v 0.4 0.9 1.8
v -0.4 0.1 1.9
v -0.4 0.1 1.7
v -0.4 0.2 1.8
v -0.4 0.2 1.7
v -0.4 0.9 1.9
v -0.4 0.9 1.8
v 0.1 0.3 -1.6
v 0.1 0.3 -1.7
v 0.1 0.4 -1.6
v 0.1 0.4 -1.7
v 0.1 0.6 -1.6
v 0.1 0.6 -1.7
v 0.1 0.7 -1.6
v 0.1 0.7 -1.7
v 0.2 0.2 -1.4
v 0.2 0.2 -1.5
v 0.2 0.3 -1.4
v 0.2 0.3 -1.5
v 0.2 0.3 -1.6
v 0.2 0.4 -1.6
v 0.2 0.4 -1.7
v 0.2 0.6 -1.6
v 0.2 0.6 -1.7
v 0.2 0.7 -1.4
v 0.2 0.7 -1.5
v 0.2 0.7 -1.6
v 0.2 0.8 -1.4
v 0.2 0.8 -1.5
v 0.3 0.1 -1.2
v 0.3 0.1 -1.3
v 0.3 0.2 1.9
v 0.3 0.2 1.8
v 0.3 0.2 -1.2
v 0.3 0.2 -1.3
v 0.3 0.2 -1.4
v 0.3 0.3 -1.4
v 0.3 0.3 -1.5
v 0.3 0.7 -1.4
v 0.3 0.7 -1.5
v 0.3 0.8 1.9
v 0.3 0.8 1.8
v 0.3 0.8 -1.2
v 0.3 0.8 -1.3
v 0.3 0.8 -1.4
v 0.3 0.9 -1.2
v 0.3 0.9 -1.3
v 0.4 0 1.9
v 0.4 0 -1.1
v 0.4 0.1 1.9
v 0.4 0.1 -1.1
v 0.4 0.1 -1.2
v 0.4 0.2 -1.2
v 0.4 0.2 -1.3
v 0.4 0.8 -1.2
v 0.4 0.8 -1.3
v 0.4 0.9 1.9
v 0.4 0.9 -1.1
v 0.4 0.9 -1.2
v 0.4 1 1.9
v 0.4 1 -1.1
v 0.5 0.1 1.9
v 0.5 0.1 -1.1
v 0.5 0.9 1.9
v 0.5 0.9 -1.1
v -0.5 0.1 1.9
v -0.5 0.9 1.9
v -0.4 0 1.9
v -0.4 0.1 1.9
v -0.4 0.9 1.9
v -0.4 1 1.9
v -0.3 0.2 1.9
v -0.3 0.8 1.9
v 0.3 0.2 1.9
v 0.3 0.8 1.9
v 0.4 0 1.9
v 0.4 0.1 1.9
v 0.4 0.9 1.9
v 0.4 1 1.9
v 0.5 0.1 1.9
v 0.5 0.9 1.9
v -0.4 0.2 1.8
v -0.4 0.9 1.8
v -0.3 0.2 1.8
v -0.3 0.8 1.8
v 0.3 0.2 1.8
v 0.3 0.8 1.8
v 0.4 0.2 1.8
v 0.4 0.9 1.8
v -0.4 0.1 1.7
v -0.4 0.2 1.7
v 0.4 0.1 1.7
v 0.4 0.2 1.7
v -0.5 0.1 -1.1
v -0.5 0.9 -1.1
v -0.4 0 -1.1
v -0.4 0.1 -1.1
v -0.4 0.9 -1.1
v -0.4 1 -1.1
v 0.4 0 -1.1
v 0.4 0.1 -1.1
v 0.4 0.9 -1.1
v 0.4 1 -1.1
v 0.5 0.1 -1.1
v 0.5 0.9 -1.1
v -0.4 0.1 -1.2
v -0.4 0.2 -1.2
v -0.4 0.8 -1.2
v -0.4 0.9 -1.2
v -0.3 0.1 -1.2
v -0.3 0.2 -1.2
v -0.3 0.8 -1.2
v -0.3 0.9 -1.2
v 0.3 0.1 -1.2
v 0.3 0.2 -1.2
v 0.3 0.8 -1.2
v 0.3 0.9 -1.2
v 0.4 0.1 -1.2
v 0.4 0.2 -1.2
v 0.4 0.8 -1.2
v 0.4 0.9 -1.2
v -0.4 0.2 -1.3
v -0.4 0.8 -1.3
v -0.3 0.1 -1.3
v -0.3 0.2 -1.3
v -0.3 0.8 -1.3
v -0.3 0.9 -1.3
v 0.3 0.1 -1.3
v 0.3 0.2 -1.3
v 0.3 0.8 -1.3
v 0.3 0.9 -1.3
v 0.4 0.2 -1.3
v 0.4 0.8 -1.3
v -0.3 0.2 -1.4
v -0.3 0.3 -1.4
v -0.3 0.7 -1.4
v -0.3 0.8 -1.4
v -0.2 0.2 -1.4
v -0.2 0.3 -1.4
v -0.2 0.7 -1.4
v -0.2 0.8 -1.4
v 0.2 0.2 -1.4
v 0.2 0.3 -1.4
v 0.2 0.7 -1.4
v 0.2 0.8 -1.4
v 0.3 0.2 -1.4
v 0.3 0.3 -1.4
v 0.3 0.7 -1.4
v 0.3 0.8 -1.4
v -0.3 0.3 -1.5
v -0.3 0.7 -1.5
v -0.2 0.2 -1.5
v -0.2 0.3 -1.5
v -0.2 0.7 -1.5
v -0.2 0.8 -1.5
v 0.2 0.2 -1.5
v 0.2 0.3 -1.5
v 0.2 0.7 -1.5
v 0.2 0.8 -1.5
v 0.3 0.3 -1.5
v 0.3 0.7 -1.5
v -0.2 0.3 -1.6
v -0.2 0.4 -1.6
v -0.2 0.6 -1.6
v -0.2 0.7 -1.6
v -0.1 0.3 -1.6
v -0.1 0.4 -1.6
v -0.1 0.6 -1.6
v -0.1 0.7 -1.6
v 0.1 0.3 -1.6
v 0.1 0.4 -1.6
v 0.1 0.6 -1.6
v 0.1 0.7 -1.6
v 0.2 0.3 -1.6
v 0.2 0.4 -1.6
v 0.2 0.6 -1.6
v 0.2 0.7 -1.6
v -0.2 0.4 -1.7
v -0.2 0.6 -1.7
v -0.1 0.3 -1.7
v -0.1 0.4 -1.7
v -0.1 0.6 -1.7
v -0.1 0.7 -1.7
v 0.1 0.3 -1.7
v 0.1 0.4 -1.7
v 0.1 0.6 -1.7
v 0.1 0.7 -1.7
v 0.2 0.4 -1.7
v 0.2 0.6 -1.7
v -0.4 0 1.9
v 0.4 0 1.9
v -0.4 0 -1.1
v 0.4 0 -1.1
v -0.5 0.1 1.9
v -0.4 0.1 1.9
v 0.4 0.1 1.9
v 0.5 0.1 1.9
v -0.5 0.1 -1.1
v -0.4 0.1 -1.1
v 0.4 0.1 -1.1
v 0.5 0.1 -1.1
v -0.4 0.1 -1.2
v -0.3 0.1 -1.2
v 0.3 0.1 -1.2
v 0.4 0.1 -1.2
v -0.3 0.1 -1.3
v 0.3 0.1 -1.3
v -0.3 0.2 1.9
v 0.3 0.2 1.9
v -0.4 0.2 1.8
v -0.3 0.2 1.8
v 0.3 0.2 1.8
v 0.4 0.2 1.8
v -0.4 0.2 1.7
v 0.4 0.2 1.7
v -0.4 0.2 -1.2
v -0.3 0.2 -1.2
v 0.3 0.2 -1.2
v 0.4 0.2 -1.2
v -0.4 0.2 -1.3
v -0.3 0.2 -1.3
v 0.3 0.2 -1.3
v 0.4 0.2 -1.3
v -0.3 0.2 -1.4
v -0.2 0.2 -1.4
v 0.2 0.2 -1.4
v 0.3 0.2 -1.4
v -0.2 0.2 -1.5
v 0.2 0.2 -1.5
v -0.3 0.3 -1.4
v -0.2 0.3 -1.4
v 0.2 0.3 -1.4
v 0.3 0.3 -1.4
v -0.3 0.3 -1.5
v -0.2 0.3 -1.5
v 0.2 0.3 -1.5
v 0.3 0.3 -1.5
v -0.2 0.3 -1.6
v -0.1 0.3 -1.6
v 0.1 0.3 -1.6
v 0.2 0.3 -1.6
v -0.1 0.3 -1.7
v 0.1 0.3 -1.7
v -0.2 0.4 -1.6
v -0.1 0.4 -1.6
v 0.1 0.4 -1.6
v 0.2 0.4 -1.6
v -0.2 0.4 -1.7
v -0.1 0.4 -1.7
v 0.1 0.4 -1.7
v 0.2 0.4 -1.7
v -0.4 0.9 1.9
v 0.4 0.9 1.9
v -0.4 0.9 1.8
v 0.4 0.9 1.8
v -0.4 0.1 1.9
v 0.4 0.1 1.9
v -0.4 0.1 1.7
v 0.4 0.1 1.7
v -0.2 0.6 -1.6
v -0.1 0.6 -1.6
v 0.1 0.6 -1.6
v 0.2 0.6 -1.6
v -0.2 0.6 -1.7
v -0.1 0.6 -1.7
v 0.1 0.6 -1.7
v 0.2 0.6 -1.7
v -0.3 0.7 -1.4
v -0.2 0.7 -1.4
v 0.2 0.7 -1.4
v 0.3 0.7 -1.4
v -0.3 0.7 -1.5
v -0.2 0.7 -1.5
v 0.2 0.7 -1.5
v 0.3 0.7 -1.5
v -0.2 0.7 -1.6
v -0.1 0.7 -1.6
v 0.1 0.7 -1.6
v 0.2 0.7 -1.6
v -0.1 0.7 -1.7
v 0.1 0.7 -1.7
v -0.3 0.8 1.9
v 0.3 0.8 1.9
v -0.3 0.8 1.8
v 0.3 0.8 1.8
v -0.4 0.8 -1.2
v -0.3 0.8 -1.2
v 0.3 0.8 -1.2
v 0.4 0.8 -1.2
v -0.4 0.8 -1.3
v -0.3 0.8 -1.3
v 0.3 0.8 -1.3
v 0.4 0.8 -1.3
v -0.3 0.8 -1.4
v -0.2 0.8 -1.4
v 0.2 0.8 -1.4
v 0.3 0.8 -1.4
v -0.2 0.8 -1.5
v 0.2 0.8 -1.5
v -0.5 0.9 1.9
v -0.4 0.9 1.9
v 0.4 0.9 1.9
v 0.5 0.9 1.9
v -0.5 0.9 -1.1
v -0.4 0.9 -1.1
v 0.4 0.9 -1.1
v 0.5 0.9 -1.1
v -0.4 0.9 -1.2
v -0.3 0.9 -1.2
v 0.3 0.9 -1.2
v 0.4 0.9 -1.2
v -0.3 0.9 -1.3
v 0.3 0.9 -1.3
v -0.4 1 1.9
v 0.4 1 1.9
v -0.4 1 -1.1
v 0.4 1 -1.1

# faces
f 3/2/1 2/2/1 1/2/1
f 4/2/1 2/2/1 3/2/1
f 7/2/1 6/2/1 5/2/1
f 8/2/1 6/2/1 7/2/1
f 10/1/1 9/1/1 8/1/1
f 12/1/1 10/1/1 8/1/1
f 12/1/1 11/1/1 10/1/1
f 13/1/1 11/1/1 12/1/1
f 15/1/1 12/1/1 8/1/1
f 16/1/1 12/1/1 15/1/1
f 17/2/1 15/2/1 14/2/1
f 18/2/1 15/2/1 17/2/1
f 23/1/1 20/1/1 19/1/1
f 24/1/1 20/1/1 23/1/1
f 26/1/1 25/1/1 24/1/1
f 28/1/1 26/1/1 24/1/1
f 28/1/1 27/1/1 26/1/1
f 29/1/1 27/1/1 28/1/1
f 30/1/1 22/1/1 21/1/1
f 31/1/1 22/1/1 30/1/1
f 33/1/1 28/1/1 24/1/1
f 34/1/1 28/1/1 33/1/1
f 35/1/1 33/1/1 32/1/1
f 36/1/1 33/1/1 35/1/1
f 39/1/1 38/1/1 37/1/1
f 40/1/1 38/1/1 39/1/1
f 42/1/1 41/1/1 40/1/1
f 44/1/1 42/1/1 40/1/1
f 44/1/1 43/1/1 42/1/1
f 45/1/1 43/1/1 44/1/1
f 47/1/1 44/1/1 40/1/1
f 48/1/1 44/1/1 47/1/1
f 49/1/1 47/1/1 46/1/1
f 50/1/1 47/1/1 49/1/1
f 53/1/1 52/1/1 51/1/1
f 54/1/1 52/1/1 53/1/1
f 57/1/1 56/1/1 55/1/1
f 58/1/1 56/1/1 57/1/1
f 61/2/1 60/2/1 59/2/1
f 62/2/1 60/2/1 61/2/1
f 63/2/1 61/2/1 59/2/1
f 64/2/1 61/2/1 63/2/1
f 65/2/2 66/2/2 67/2/2
f 67/2/2 66/2/2 68/2/2
f 65/2/2 67/2/2 69/2/2
f 69/2/2 67/2/2 70/2/2
f 71/1/2 72/1/2 73/1/2
f 73/1/2 72/1/2 74/1/2
f 75/1/2 76/1/2 77/1/2
f 77/1/2 76/1/2 78/1/2
f 79/1/2 80/1/2 81/1/2
f 81/1/2 80/1/2 82/1/2
f 82/1/2 83/1/2 84/1/2
f 82/1/2 84/1/2 86/1/2
f 84/1/2 85/1/2 86/1/2
f 86/1/2 85/1/2 87/1/2
f 82/1/2 86/1/2 89/1/2
f 89/1/2 86/1/2 90/1/2
f 88/1/2 89/1/2 91/1/2
f 91/1/2 89/1/2 92/1/2
f 93/1/2 94/1/2 97/1/2
f 97/1/2 94/1/2 98/1/2
f 98/1/2 99/1/2 100/1/2
f 98/1/2 100/1/2 102/1/2
f 100/1/2 101/1/2 102/1/2
f 102/1/2 101/1/2 103/1/2
f 95/1/2 96/1/2 104/1/2
f 104/1/2 96/1/2 105/1/2
f 98/1/2 102/1/2 107/1/2
f 107/1/2 102/1/2 108/1/2
f 106/1/2 107/1/2 109/1/2
f 109/1/2 107/1/2 110/1/2
f 111/2/2 112/2/2 113/2/2
f 113/2/2 112/2/2 114/2/2
f 114/1/2 115/1/2 116/1/2
f 114/1/2 116/1/2 118/1/2
f 116/1/2 117/1/2 118/1/2
f 118/1/2 117/1/2 119/1/2
f 114/1/2 118/1/2 121/1/2
f 121/1/2 118/1/2 122/1/2
f 120/2/2 121/2/2 123/2/2
f 123/2/2 121/2/2 124/2/2
f 125/2/2 126/2/2 127/2/2
f 127/2/2 126/2/2 128/2/2
f 132/2/3 130/2/3 129/2/3
f 133/2/3 130/2/3 132/2/3
f 137/1/3 136/1/3 135/1/3
f 138/1/3 136/1/3 137/1/3
f 139/2/3 132/2/3 131/2/3
f 140/2/3 132/2/3 139/2/3
f 141/2/3 134/2/3 133/2/3
f 142/2/3 134/2/3 141/2/3
f 143/2/3 141/2/3 140/2/3
f 144/2/3 141/2/3 143/2/3
f 147/2/3 146/2/3 145/2/3
f 148/2/3 146/2/3 147/2/3
f 150/2/3 146/2/3 148/2/3
f 151/2/3 150/2/3 149/2/3
f 152/2/3 146/2/3 150/2/3
f 152/2/3 150/2/3 151/2/3
f 155/2/3 154/2/3 153/2/3
f 156/2/3 154/2/3 155/2/3
f 157/2/4 158/2/4 160/2/4
f 160/2/4 158/2/4 161/2/4
f 159/2/4 160/2/4 163/2/4
f 163/2/4 160/2/4 164/2/4
f 161/2/4 162/2/4 165/2/4
f 165/2/4 162/2/4 166/2/4
f 164/2/4 165/2/4 167/2/4
f 167/2/4 165/2/4 168/2/4
f 169/1/4 170/1/4 173/1/4
f 173/1/4 170/1/4 174/1/4
f 171/1/4 172/1/4 175/1/4
f 175/1/4 172/1/4 176/1/4
f 177/1/4 178/1/4 181/1/4
f 181/1/4 178/1/4 182/1/4
f 179/1/4 180/1/4 183/1/4
f 183/1/4 180/1/4 184/1/4
f 185/1/4 186/1/4 188/1/4
f 188/1/4 186/1/4 189/1/4
f 187/1/4 188/1/4 191/1/4
f 191/1/4 188/1/4 192/1/4
f 189/1/4 190/1/4 193/1/4
f 193/1/4 190/1/4 194/1/4
f 192/1/4 193/1/4 195/1/4
f 195/1/4 193/1/4 196/1/4
f 197/1/4 198/1/4 201/1/4
f 201/1/4 198/1/4 202/1/4
f 199/1/4 200/1/4 203/1/4
f 203/1/4 200/1/4 204/1/4
f 205/1/4 206/1/4 209/1/4
f 209/1/4 206/1/4 210/1/4
f 207/1/4 208/1/4 211/1/4
f 211/1/4 208/1/4 212/1/4
f 213/1/4 214/1/4 216/1/4
f 216/1/4 214/1/4 217/1/4
f 215/1/4 216/1/4 219/1/4
f 219/1/4 216/1/4 220/1/4
f 217/1/4 218/1/4 221/1/4
f 221/1/4 218/1/4 222/1/4
f 220/1/4 221/1/4 223/1/4
f 223/1/4 221/1/4 224/1/4
f 225/1/4 226/1/4 229/1/4
f 229/1/4 226/1/4 230/1/4
f 227/1/4 228/1/4 231/1/4
f 231/1/4 228/1/4 232/1/4
f 233/1/4 234/1/4 237/1/4
f 237/1/4 234/1/4 238/1/4
f 235/1/4 236/1/4 239/1/4
f 239/1/4 236/1/4 240/1/4
f 241/1/4 242/1/4 244/1/4
f 244/1/4 242/1/4 245/1/4
f 243/1/4 244/1/4 247/1/4
f 245/1/4 246/1/4 247/1/4
f 244/1/4 245/1/4 247/1/4
f 247/1/4 246/1/4 248/1/4
f 248/1/4 246/1/4 249/1/4
f 249/1/4 246/1/4 250/1/4
f 248/1/4 249/1/4 251/1/4
f 251/1/4 249/1/4 252/1/4
f 255/2/5 254/2/5 253/2/5
f 256/2/5 254/2/5 255/2/5
f 261/2/5 258/2/5 257/2/5
f 262/2/5 258/2/5 261/2/5
f 263/2/5 260/2/5 259/2/5
f 264/2/5 260/2/5 263/2/5
f 265/1/5 263/1/5 262/1/5
f 266/1/5 263/1/5 265/1/5
f 267/1/5 263/1/5 266/1/5
f 268/1/5 263/1/5 267/1/5
f 269/1/5 267/1/5 266/1/5
f 270/1/5 267/1/5 269/1/5
f 274/1/5 272/1/5 271/1/5
f 275/1/5 272/1/5 274/1/5
f 277/2/5 274/2/5 273/2/5
f 277/2/5 276/2/5 275/2/5
f 277/2/5 275/2/5 274/2/5
f 278/2/5 276/2/5 277/2/5
f 283/1/5 280/1/5 279/1/5
f 284/1/5 280/1/5 283/1/5
f 285/1/5 282/1/5 281/1/5
f 286/1/5 282/1/5 285/1/5
f 287/1/5 285/1/5 284/1/5
f 288/1/5 285/1/5 287/1/5
f 289/1/5 285/1/5 288/1/5
f 290/1/5 285/1/5 289/1/5
f 291/1/5 289/1/5 288/1/5
f 292/1/5 289/1/5 291/1/5
f 297/1/5 294/1/5 293/1/5
f 298/1/5 294/1/5 297/1/5
f 299/1/5 296/1/5 295/1/5
f 300/1/5 296/1/5 299/1/5
f 301/1/5 299/1/5 298/1/5
f 302/1/5 299/1/5 301/1/5
f 303/1/5 299/1/5 302/1/5
f 304/1/5 299/1/5 303/1/5
f 305/1/5 303/1/5 302/1/5
f 306/1/5 303/1/5 305/1/5
f 311/1/5 308/1/5 307/1/5
f 312/1/5 308/1/5 311/1/5
f 313/1/5 310/1/5 309/1/5
f 314/1/5 310/1/5 313/1/5
f 317/2/5 316/2/5 315/2/5
f 318/2/5 316/2/5 317/2/5
f 319/2/6 320/2/6 321/2/6
f 321/2/6 320/2/6 322/2/6
f 323/1/6 324/1/6 327/1/6
f 327/1/6 324/1/6 328/1/6
f 325/1/6 326/1/6 329/1/6
f 329/1/6 326/1/6 330/1/6
f 331/1/6 332/1/6 335/1/6
f 335/1/6 332/1/6 336/1/6
f 333/1/6 334/1/6 337/1/6
f 337/1/6 334/1/6 338/1/6
f 336/1/6 337/1/6 339/1/6
f 339/1/6 337/1/6 340/1/6
f 340/1/6 337/1/6 341/1/6
f 341/1/6 337/1/6 342/1/6
f 340/1/6 341/1/6 343/1/6
f 343/1/6 341/1/6 344/1/6
f 345/1/6 346/1/6 347/1/6
f 347/1/6 346/1/6 348/1/6
f 349/1/6 350/1/6 353/1/6
f 353/1/6 350/1/6 354/1/6
f 351/1/6 352/1/6 355/1/6
f 355/1/6 352/1/6 356/1/6
f 354/1/6 355/1/6 357/1/6
f 357/1/6 355/1/6 358/1/6
f 358/1/6 355/1/6 359/1/6
f 359/1/6 355/1/6 360/1/6
f 358/1/6 359/1/6 361/1/6
f 361/1/6 359/1/6 362/1/6
f 363/2/6 364/2/6 367/2/6
f 367/2/6 364/2/6 368/2/6
f 365/2/6 366/2/6 369/2/6
f 369/2/6 366/2/6 370/2/6
f 368/1/6 369/1/6 371/1/6
f 371/1/6 369/1/6 372/1/6
f 372/1/6 369/1/6 373/1/6
f 373/1/6 369/1/6 374/1/6
f 372/1/6 373/1/6 375/1/6
f 375/1/6 373/1/6 376/1/6
f 377/2/6 378/2/6 379/2/6
f 379/2/6 378/2/6 380/2/6
